<svg xmlns="http://www.w3.org/2000/svg" width="24" height="24" viewBox="0 0 24 24" fill="none">
    <mask id="mask0_1255_2144" style="mask-type:luminance" maskUnits="userSpaceOnUse" x="0" y="0" width="24" height="25">
        <path d="M0 0.00012207H24V24.0001H0V0.00012207Z" fill="white"/>
    </mask>
    <g mask="url(#mask0_1255_2144)">
        <path d="M22 12.0001H23M12 2.00012V1.00012M12 23.0001V22.0001M20 20.0001L19 19.0001M20 4.00012L19 5.00012M4 20.0001L5 19.0001M4 4.00012L5 5.00012M1 12.0001H2M9.952 9.62312L11.511 6.31812C11.553 6.22349 11.6216 6.14308 11.7084 6.08664C11.7952 6.0302 11.8965 6.00016 12 6.00016C12.1035 6.00016 12.2048 6.0302 12.2916 6.08664C12.3784 6.14308 12.447 6.22349 12.489 6.31812L14.048 9.62312L17.533 10.1561C17.98 10.2241 18.158 10.8001 17.835 11.1301L15.313 13.7001L15.908 17.3311C15.985 17.7981 15.517 18.1531 15.117 17.9331L12 16.2181L8.883 17.9331C8.483 18.1531 8.015 17.7981 8.092 17.3311L8.687 13.7011L6.165 11.1301C5.842 10.8001 6.02 10.2241 6.467 10.1561L9.952 9.62312Z" stroke="#8285A5" stroke-width="2" stroke-linecap="round" stroke-linejoin="round"/>
    </g>
</svg>
