<svg xmlns="http://www.w3.org/2000/svg" width="24" height="24" viewBox="0 0 24 24" fill="none">
    <path d="M17.2959 12.796L9.7959 20.296C9.58455 20.5074 9.29791 20.6261 8.99902 20.6261C8.70014 20.6261 8.41349 20.5074 8.20215 20.296C7.9908 20.0847 7.87207 19.798 7.87207 19.4991C7.87207 19.2003 7.9908 18.9136 8.20215 18.7023L14.9062 12.0001L8.20402 5.29602C8.09937 5.19137 8.01636 5.06714 7.95973 4.93041C7.90309 4.79368 7.87394 4.64714 7.87394 4.49914C7.87394 4.35115 7.90309 4.20461 7.95973 4.06788C8.01636 3.93115 8.09937 3.80692 8.20402 3.70227C8.30867 3.59762 8.4329 3.51461 8.56963 3.45798C8.70636 3.40134 8.8529 3.37219 9.0009 3.37219C9.14889 3.37219 9.29543 3.40134 9.43216 3.45798C9.56889 3.51461 9.69313 3.59762 9.79777 3.70227L17.2978 11.2023C17.4025 11.3069 17.4856 11.4312 17.5422 11.568C17.5988 11.7048 17.6279 11.8515 17.6277 11.9995C17.6275 12.1476 17.5981 12.2942 17.5412 12.4309C17.4843 12.5675 17.4009 12.6916 17.2959 12.796Z" fill="#0064D8"/>
</svg>
