<svg width="24" height="24" viewBox="0 0 24 24" fill="none" xmlns="http://www.w3.org/2000/svg">
    <path d="M15.7957 18.7042C16.0071 18.9156 16.1258 19.2022 16.1258 19.5011C16.1258 19.8 16.0071 20.0866 15.7957 20.298C15.5844 20.5093 15.2977 20.628 14.9989 20.628C14.7 20.628 14.4133 20.5093 14.202 20.298L6.70198 12.798C6.5971 12.6935 6.51388 12.5693 6.4571 12.4325C6.40032 12.2958 6.37109 12.1492 6.37109 12.0011C6.37109 11.853 6.40032 11.7064 6.4571 11.5697C6.51388 11.4329 6.5971 11.3087 6.70198 11.2042L14.202 3.70422C14.4133 3.49288 14.7 3.37415 14.9989 3.37415C15.2977 3.37415 15.5844 3.49288 15.7957 3.70422C16.0071 3.91557 16.1258 4.20221 16.1258 4.5011C16.1258 4.79998 16.0071 5.08663 15.7957 5.29797L9.09354 12.0002L15.7957 18.7042Z" fill="#0064D8"/>
</svg>
