<svg xmlns="http://www.w3.org/2000/svg" width="24" height="24" viewBox="0 0 24 24" fill="none">
    <path d="M12 22.0001C17.523 22.0001 22 17.5231 22 12.0001C22 6.47712 17.523 2.00012 12 2.00012C6.477 2.00012 2 6.47712 2 12.0001C2 17.5231 6.477 22.0001 12 22.0001Z" stroke="#8285A5" stroke-width="2" stroke-linecap="round" stroke-linejoin="round"/>
    <path d="M15.5 16.0001C15.6326 16.0001 15.7598 15.9474 15.8536 15.8537C15.9473 15.7599 16 15.6327 16 15.5001C16 15.3675 15.9473 15.2403 15.8536 15.1466C15.7598 15.0528 15.6326 15.0001 15.5 15.0001C15.3674 15.0001 15.2402 15.0528 15.1464 15.1466C15.0527 15.2403 15 15.3675 15 15.5001C15 15.6327 15.0527 15.7599 15.1464 15.8537C15.2402 15.9474 15.3674 16.0001 15.5 16.0001ZM8.5 9.00012C8.63261 9.00012 8.75979 8.94744 8.85355 8.85368C8.94732 8.75991 9 8.63273 9 8.50012C9 8.36751 8.94732 8.24034 8.85355 8.14657C8.75979 8.0528 8.63261 8.00012 8.5 8.00012C8.36739 8.00012 8.24021 8.0528 8.14645 8.14657C8.05268 8.24034 8 8.36751 8 8.50012C8 8.63273 8.05268 8.75991 8.14645 8.85368C8.24021 8.94744 8.36739 9.00012 8.5 9.00012Z" fill="#8285A5" stroke="#8285A5" stroke-width="2" stroke-linecap="round" stroke-linejoin="round"/>
    <path d="M16 8.00012L8 16.0001" stroke="#8285A5" stroke-width="2" stroke-linecap="round" stroke-linejoin="round"/>
</svg>
