<svg width="180" height="62" viewBox="0 0 180 62" fill="none" xmlns="http://www.w3.org/2000/svg" class="header_logo">
<path d="M13.79 26.862H19.822V32.256C19.822 35.5427 19.01 38.0753 17.386 39.854C15.762 41.594 13.4033 42.464 10.31 42.464C7.21667 42.464 4.858 41.594 3.234 39.854C1.61 38.0753 0.798 35.5427 0.798 32.256V11.144C0.798 7.85733 1.61 5.344 3.234 3.604C4.858 1.82533 7.21667 0.936 10.31 0.936C13.4033 0.936 15.762 1.82533 17.386 3.604C19.01 5.344 19.822 7.85733 19.822 11.144V15.088H13.79V10.738C13.79 8.07 12.688 6.736 10.484 6.736C8.28 6.736 7.178 8.07 7.178 10.738V32.662C7.178 35.2913 8.28 36.606 10.484 36.606C12.688 36.606 13.79 35.2913 13.79 32.662V26.862ZM30.073 7.2V18.51H38.831V24.31H30.073V36.2H41.093V42H23.693V1.4H41.093V7.2H30.073ZM45.0466 42V1.4H51.4266V36.2H61.9246V42H45.0466ZM71.0809 7.2V18.51H79.8389V24.31H71.0809V36.2H82.1009V42H64.7009V1.4H82.1009V7.2H71.0809ZM85.2424 11.144C85.2424 7.85733 86.035 5.344 87.6204 3.604C89.2057 1.82533 91.545 0.936 94.6384 0.936C97.7317 0.936 100.071 1.82533 101.656 3.604C103.242 5.344 104.034 7.85733 104.034 11.144V12.42H98.0024V10.738C98.0024 8.07 96.939 6.736 94.8124 6.736C92.6857 6.736 91.6224 8.07 91.6224 10.738C91.6224 12.246 92.0477 13.6767 92.8984 15.03C93.749 16.3447 94.7737 17.5433 95.9724 18.626C97.2097 19.7087 98.447 20.8493 99.6844 22.048C100.922 23.208 101.966 24.6773 102.816 26.456C103.667 28.196 104.092 30.1293 104.092 32.256C104.092 35.5427 103.28 38.0753 101.656 39.854C100.032 41.594 97.6737 42.464 94.5804 42.464C91.487 42.464 89.1284 41.594 87.5044 39.854C85.8804 38.0753 85.0684 35.5427 85.0684 32.256V29.762H91.1004V32.662C91.1004 35.2913 92.2024 36.606 94.4064 36.606C96.6104 36.606 97.7124 35.2913 97.7124 32.662C97.7124 31.154 97.287 29.7427 96.4364 28.428C95.5857 27.0747 94.5417 25.8567 93.3044 24.774C92.1057 23.6913 90.8877 22.57 89.6504 21.41C88.413 20.2113 87.369 18.742 86.5184 17.002C85.6677 15.2233 85.2424 13.2707 85.2424 11.144ZM105.892 7.2V1.4H125.612V7.2H118.942V42H112.562V7.2H105.892ZM128.422 42V1.4H134.802V42H128.422ZM153.618 1.4L160.114 42H153.676L152.574 34.634H144.744L143.642 42H137.784L144.28 1.4H153.618ZM148.63 8.592L145.556 29.124H151.704L148.63 8.592ZM163.086 42V1.4H169.466V36.2H179.964V42H163.086Z" fill="#28264B"/>
<path d="M0.2 61V52.6H6.8V61H5.672V53.584H1.328V61H0.2ZM12.92 61.12C12.44 61.12 11.976 61.04 11.528 60.88C11.08 60.712 10.684 60.456 10.34 60.112C9.996 59.768 9.72 59.328 9.512 58.792C9.304 58.256 9.2 57.612 9.2 56.86V56.62C9.2 55.9 9.304 55.28 9.512 54.76C9.72 54.24 9.996 53.812 10.34 53.476C10.684 53.132 11.08 52.88 11.528 52.72C11.976 52.56 12.44 52.48 12.92 52.48C13.4 52.48 13.864 52.56 14.312 52.72C14.76 52.88 15.156 53.132 15.5 53.476C15.844 53.812 16.12 54.24 16.328 54.76C16.536 55.28 16.64 55.9 16.64 56.62V56.86C16.64 57.612 16.536 58.256 16.328 58.792C16.12 59.328 15.844 59.768 15.5 60.112C15.156 60.456 14.76 60.712 14.312 60.88C13.864 61.04 13.4 61.12 12.92 61.12ZM12.92 60.112C13.248 60.112 13.564 60.052 13.868 59.932C14.172 59.812 14.44 59.624 14.672 59.368C14.904 59.104 15.088 58.768 15.224 58.36C15.368 57.944 15.44 57.444 15.44 56.86V56.62C15.44 56.068 15.368 55.596 15.224 55.204C15.088 54.804 14.904 54.48 14.672 54.232C14.44 53.976 14.172 53.788 13.868 53.668C13.564 53.548 13.248 53.488 12.92 53.488C12.592 53.488 12.276 53.548 11.972 53.668C11.668 53.788 11.4 53.976 11.168 54.232C10.936 54.48 10.748 54.804 10.604 55.204C10.468 55.596 10.4 56.068 10.4 56.62V56.86C10.4 57.444 10.468 57.944 10.604 58.36C10.748 58.768 10.936 59.104 11.168 59.368C11.4 59.624 11.668 59.812 11.972 59.932C12.276 60.052 12.592 60.112 12.92 60.112ZM19.0428 61V52.6H20.1708V56.212H21.1308L24.4188 52.6H25.7628L22.0908 56.608L25.8828 61H24.4428L21.1308 57.148H20.1708V61H19.0428ZM29.3023 61.12C29.2143 61.12 29.1263 61.116 29.0383 61.108C28.9583 61.108 28.8863 61.104 28.8223 61.096V60.088C28.8863 60.096 28.9583 60.104 29.0383 60.112C29.1263 60.112 29.2143 60.112 29.3023 60.112C29.4703 60.112 29.6143 60.1 29.7343 60.076C29.8543 60.044 29.9583 59.992 30.0463 59.92C30.1423 59.84 30.2263 59.736 30.2983 59.608C30.3783 59.472 30.4623 59.304 30.5503 59.104L27.0823 52.6H28.3063L31.1143 57.94L33.4903 52.6H34.6423L31.5823 59.356C31.4463 59.66 31.3063 59.924 31.1623 60.148C31.0183 60.372 30.8583 60.556 30.6823 60.7C30.5063 60.844 30.3063 60.948 30.0823 61.012C29.8583 61.084 29.5983 61.12 29.3023 61.12ZM36.5614 61V52.6H43.1614V61H42.0334V53.584H37.6894V61H36.5614ZM46.0414 61V52.6H47.1694V56.212H48.1294L51.4174 52.6H52.7614L49.0894 56.608L52.8814 61H51.4414L48.1294 57.148H47.1694V61H46.0414ZM54.9238 61V52.6H56.0518V59.2L60.5158 52.6H61.6438V61H60.5158V54.4L56.0518 61H54.9238ZM71.2409 61.12C70.7609 61.12 70.2969 61.04 69.8489 60.88C69.4009 60.712 69.0049 60.456 68.6609 60.112C68.3169 59.768 68.0409 59.328 67.8329 58.792C67.6249 58.256 67.5209 57.612 67.5209 56.86V56.62C67.5209 55.9 67.6249 55.28 67.8329 54.76C68.0409 54.24 68.3169 53.812 68.6609 53.476C69.0049 53.132 69.4009 52.88 69.8489 52.72C70.2969 52.56 70.7609 52.48 71.2409 52.48C71.7209 52.48 72.1849 52.56 72.6329 52.72C73.0809 52.88 73.4769 53.132 73.8209 53.476C74.1649 53.812 74.4409 54.24 74.6489 54.76C74.8569 55.28 74.9609 55.9 74.9609 56.62V56.86C74.9609 57.612 74.8569 58.256 74.6489 58.792C74.4409 59.328 74.1649 59.768 73.8209 60.112C73.4769 60.456 73.0809 60.712 72.6329 60.88C72.1849 61.04 71.7209 61.12 71.2409 61.12ZM71.2409 60.112C71.5689 60.112 71.8849 60.052 72.1889 59.932C72.4929 59.812 72.7609 59.624 72.9929 59.368C73.2249 59.104 73.4089 58.768 73.5449 58.36C73.6889 57.944 73.7609 57.444 73.7609 56.86V56.62C73.7609 56.068 73.6889 55.596 73.5449 55.204C73.4089 54.804 73.2249 54.48 72.9929 54.232C72.7609 53.976 72.4929 53.788 72.1889 53.668C71.8849 53.548 71.5689 53.488 71.2409 53.488C70.9129 53.488 70.5969 53.548 70.2929 53.668C69.9889 53.788 69.7209 53.976 69.4889 54.232C69.2569 54.48 69.0689 54.804 68.9249 55.204C68.7889 55.596 68.7209 56.068 68.7209 56.62V56.86C68.7209 57.444 68.7889 57.944 68.9249 58.36C69.0689 58.768 69.2569 59.104 69.4889 59.368C69.7209 59.624 69.9889 59.812 70.2929 59.932C70.5969 60.052 70.9129 60.112 71.2409 60.112ZM77.3637 61V52.6H83.9638V61H82.8358V53.584H78.4917V61H77.3637ZM88.7998 61V53.584H85.8838V52.6H92.8438V53.584H89.9278V61H88.7998ZM97.7708 61.12C97.2908 61.12 96.8268 61.04 96.3788 60.88C95.9308 60.712 95.5348 60.456 95.1908 60.112C94.8468 59.768 94.5708 59.328 94.3628 58.792C94.1548 58.256 94.0508 57.612 94.0508 56.86V56.62C94.0508 55.9 94.1548 55.28 94.3628 54.76C94.5708 54.24 94.8468 53.812 95.1908 53.476C95.5348 53.132 95.9308 52.88 96.3788 52.72C96.8268 52.56 97.2908 52.48 97.7708 52.48C98.2508 52.48 98.7148 52.56 99.1628 52.72C99.6108 52.88 100.007 53.132 100.351 53.476C100.695 53.812 100.971 54.24 101.179 54.76C101.387 55.28 101.491 55.9 101.491 56.62V56.86C101.491 57.612 101.387 58.256 101.179 58.792C100.971 59.328 100.695 59.768 100.351 60.112C100.007 60.456 99.6108 60.712 99.1628 60.88C98.7148 61.04 98.2508 61.12 97.7708 61.12ZM97.7708 60.112C98.0988 60.112 98.4148 60.052 98.7188 59.932C99.0228 59.812 99.2908 59.624 99.5228 59.368C99.7548 59.104 99.9388 58.768 100.075 58.36C100.219 57.944 100.291 57.444 100.291 56.86V56.62C100.291 56.068 100.219 55.596 100.075 55.204C99.9388 54.804 99.7548 54.48 99.5228 54.232C99.2908 53.976 99.0228 53.788 98.7188 53.668C98.4148 53.548 98.0988 53.488 97.7708 53.488C97.4428 53.488 97.1268 53.548 96.8228 53.668C96.5188 53.788 96.2508 53.976 96.0188 54.232C95.7868 54.48 95.5988 54.804 95.4548 55.204C95.3188 55.596 95.2508 56.068 95.2508 56.62V56.86C95.2508 57.444 95.3188 57.944 95.4548 58.36C95.5988 58.768 95.7868 59.104 96.0188 59.368C96.2508 59.624 96.5188 59.812 96.8228 59.932C97.1268 60.052 97.4428 60.112 97.7708 60.112ZM103.894 61V52.6H105.07L107.878 57.94L110.686 52.6H111.814V61H110.686V54.64L108.274 59.2H107.434L105.022 54.64V61H103.894ZM118.178 61V52.6H119.306V59.2L123.77 52.6H124.898V61H123.77V54.4L119.306 61H118.178ZM130.427 61.12C129.939 61.12 129.499 61.06 129.107 60.94C128.723 60.812 128.395 60.636 128.123 60.412C127.851 60.188 127.635 59.924 127.475 59.62C127.315 59.308 127.219 58.968 127.187 58.6H128.315C128.347 58.824 128.419 59.032 128.531 59.224C128.643 59.408 128.787 59.568 128.963 59.704C129.147 59.832 129.359 59.932 129.599 60.004C129.847 60.076 130.123 60.112 130.427 60.112C131.171 60.112 131.707 59.98 132.035 59.716C132.371 59.452 132.539 59.096 132.539 58.648C132.539 58.432 132.499 58.232 132.419 58.048C132.347 57.864 132.227 57.708 132.059 57.58C131.891 57.444 131.675 57.34 131.411 57.268C131.155 57.188 130.847 57.148 130.487 57.148H129.347V56.212H130.487C130.791 56.212 131.051 56.18 131.267 56.116C131.491 56.044 131.675 55.948 131.819 55.828C131.963 55.7 132.067 55.552 132.131 55.384C132.203 55.216 132.239 55.032 132.239 54.832C132.239 54.632 132.199 54.452 132.119 54.292C132.047 54.124 131.935 53.98 131.783 53.86C131.631 53.74 131.443 53.648 131.219 53.584C130.995 53.52 130.731 53.488 130.427 53.488C130.107 53.488 129.831 53.52 129.599 53.584C129.367 53.648 129.171 53.74 129.011 53.86C128.859 53.972 128.739 54.112 128.651 54.28C128.571 54.44 128.519 54.62 128.495 54.82H127.367C127.399 54.484 127.487 54.172 127.631 53.884C127.775 53.596 127.971 53.348 128.219 53.14C128.475 52.932 128.787 52.772 129.155 52.66C129.523 52.54 129.947 52.48 130.427 52.48C130.907 52.48 131.331 52.536 131.699 52.648C132.067 52.76 132.375 52.92 132.623 53.128C132.871 53.336 133.055 53.584 133.175 53.872C133.303 54.16 133.367 54.48 133.367 54.832C133.367 55.272 133.239 55.648 132.983 55.96C132.735 56.264 132.403 56.484 131.987 56.62C132.491 56.74 132.895 56.972 133.199 57.316C133.511 57.652 133.667 58.096 133.667 58.648C133.667 59.008 133.595 59.34 133.451 59.644C133.315 59.94 133.107 60.2 132.827 60.424C132.555 60.64 132.219 60.812 131.819 60.94C131.419 61.06 130.955 61.12 130.427 61.12ZM139.411 61V52.6H140.539V56.212H141.499L144.787 52.6H146.131L142.459 56.608L146.251 61H144.811L141.499 57.148H140.539V61H139.411ZM148.293 61V52.6H149.421V59.2L153.885 52.6H155.013V61H153.885V54.4L149.421 61H148.293ZM159.846 61V53.584H156.93V52.6H163.89V53.584H160.974V61H159.846ZM163.891 61L167.107 52.6H168.235L171.451 61H170.227L169.423 58.912H165.871L165.067 61H163.891ZM166.243 57.928H169.051L167.647 54.04L166.243 57.928ZM172.71 61L175.014 57.472C174.366 57.296 173.878 57 173.55 56.584C173.23 56.16 173.07 55.672 173.07 55.12C173.07 54.76 173.138 54.428 173.274 54.124C173.41 53.812 173.61 53.544 173.874 53.32C174.138 53.096 174.466 52.92 174.858 52.792C175.258 52.664 175.722 52.6 176.25 52.6H179.19V61H178.062V57.616H176.118L173.982 61H172.71ZM176.37 56.656H178.062V53.584H176.37C175.986 53.584 175.654 53.624 175.374 53.704C175.102 53.776 174.878 53.88 174.702 54.016C174.526 54.144 174.398 54.304 174.318 54.496C174.238 54.68 174.198 54.888 174.198 55.12C174.198 55.344 174.238 55.552 174.318 55.744C174.398 55.936 174.526 56.1 174.702 56.236C174.878 56.364 175.102 56.468 175.374 56.548C175.654 56.62 175.986 56.656 176.37 56.656Z" fill="#1B225C"/>
</svg>